<svg width="290" height="164" viewBox="0 0 290 164" fill="none" xmlns="http://www.w3.org/2000/svg">
<rect width="290" height="164" rx="10" transform="matrix(1 0 0 -1 0 164)" fill="#F5F5F6"/>
<path d="M108.089 103.614C108.161 103.77 108.197 103.926 108.197 104.082C108.197 104.358 108.083 104.592 107.855 104.784C107.639 104.976 107.387 105.072 107.099 105.072C106.907 105.072 106.727 105.024 106.559 104.928C106.391 104.82 106.259 104.658 106.163 104.442L105.083 102.03H98.7468L97.6668 104.442C97.5708 104.658 97.4388 104.82 97.2708 104.928C97.1028 105.024 96.9168 105.072 96.7128 105.072C96.4368 105.072 96.1848 104.976 95.9568 104.784C95.7288 104.592 95.6148 104.358 95.6148 104.082C95.6148 103.926 95.6508 103.77 95.7228 103.614L100.691 92.94C100.799 92.7 100.961 92.52 101.177 92.4C101.405 92.268 101.645 92.202 101.897 92.202C102.149 92.202 102.383 92.268 102.599 92.4C102.827 92.52 102.995 92.7 103.103 92.94L108.089 103.614ZM99.5388 100.23H104.291L101.915 94.884L99.5388 100.23ZM117.092 92.22C117.428 92.22 117.704 92.316 117.92 92.508C118.136 92.7 118.244 92.952 118.244 93.264V104.028C118.244 104.352 118.142 104.61 117.938 104.802C117.734 104.994 117.464 105.09 117.128 105.09C116.792 105.09 116.522 104.994 116.318 104.802C116.114 104.61 116.012 104.352 116.012 104.028V103.578C115.748 104.07 115.364 104.454 114.86 104.73C114.368 105.006 113.804 105.144 113.168 105.144C112.412 105.144 111.734 104.952 111.134 104.568C110.546 104.184 110.084 103.644 109.748 102.948C109.424 102.24 109.262 101.43 109.262 100.518C109.262 99.606 109.424 98.808 109.748 98.124C110.084 97.44 110.546 96.912 111.134 96.54C111.722 96.168 112.4 95.982 113.168 95.982C113.804 95.982 114.368 96.114 114.86 96.378C115.352 96.642 115.73 97.014 115.994 97.494V93.228C115.994 92.928 116.09 92.688 116.282 92.508C116.486 92.316 116.756 92.22 117.092 92.22ZM113.762 103.398C114.482 103.398 115.034 103.152 115.418 102.66C115.814 102.168 116.012 101.466 116.012 100.554C116.012 99.642 115.814 98.946 115.418 98.466C115.034 97.974 114.488 97.728 113.78 97.728C113.06 97.728 112.502 97.968 112.106 98.448C111.71 98.928 111.512 99.618 111.512 100.518C111.512 101.43 111.71 102.138 112.106 102.642C112.502 103.146 113.054 103.398 113.762 103.398ZM127.903 92.22C128.239 92.22 128.515 92.316 128.731 92.508C128.947 92.7 129.055 92.952 129.055 93.264V104.028C129.055 104.352 128.953 104.61 128.749 104.802C128.545 104.994 128.275 105.09 127.939 105.09C127.603 105.09 127.333 104.994 127.129 104.802C126.925 104.61 126.823 104.352 126.823 104.028V103.578C126.559 104.07 126.175 104.454 125.671 104.73C125.179 105.006 124.615 105.144 123.979 105.144C123.223 105.144 122.545 104.952 121.945 104.568C121.357 104.184 120.895 103.644 120.559 102.948C120.235 102.24 120.073 101.43 120.073 100.518C120.073 99.606 120.235 98.808 120.559 98.124C120.895 97.44 121.357 96.912 121.945 96.54C122.533 96.168 123.211 95.982 123.979 95.982C124.615 95.982 125.179 96.114 125.671 96.378C126.163 96.642 126.541 97.014 126.805 97.494V93.228C126.805 92.928 126.901 92.688 127.093 92.508C127.297 92.316 127.567 92.22 127.903 92.22ZM124.573 103.398C125.293 103.398 125.845 103.152 126.229 102.66C126.625 102.168 126.823 101.466 126.823 100.554C126.823 99.642 126.625 98.946 126.229 98.466C125.845 97.974 125.299 97.728 124.591 97.728C123.871 97.728 123.313 97.968 122.917 98.448C122.521 98.928 122.323 99.618 122.323 100.518C122.323 101.43 122.521 102.138 122.917 102.642C123.313 103.146 123.865 103.398 124.573 103.398ZM137.606 105.108C137.258 105.108 136.976 105 136.76 104.784C136.556 104.568 136.454 104.286 136.454 103.938V93.372C136.454 93.024 136.556 92.748 136.76 92.544C136.976 92.328 137.258 92.22 137.606 92.22C137.966 92.22 138.248 92.328 138.452 92.544C138.668 92.748 138.776 93.024 138.776 93.372V103.938C138.776 104.286 138.668 104.568 138.452 104.784C138.248 105 137.966 105.108 137.606 105.108ZM151.776 95.982C152.736 95.982 153.468 96.27 153.972 96.846C154.488 97.41 154.746 98.328 154.746 99.6V104.028C154.746 104.376 154.638 104.646 154.422 104.838C154.218 105.018 153.948 105.108 153.612 105.108C153.288 105.108 153.018 105.018 152.802 104.838C152.598 104.646 152.496 104.376 152.496 104.028V99.6C152.496 98.94 152.376 98.472 152.136 98.196C151.908 97.908 151.554 97.764 151.074 97.764C150.486 97.764 150.018 97.968 149.67 98.376C149.322 98.772 149.148 99.318 149.148 100.014V104.028C149.148 104.376 149.04 104.646 148.824 104.838C148.62 105.018 148.356 105.108 148.032 105.108C147.708 105.108 147.438 105.018 147.222 104.838C147.006 104.646 146.898 104.376 146.898 104.028V99.6C146.898 98.94 146.778 98.472 146.538 98.196C146.31 97.908 145.956 97.764 145.476 97.764C144.888 97.764 144.42 97.968 144.072 98.376C143.736 98.772 143.568 99.318 143.568 100.014V104.028C143.568 104.376 143.46 104.646 143.244 104.838C143.028 105.018 142.758 105.108 142.434 105.108C142.11 105.108 141.84 105.018 141.624 104.838C141.42 104.646 141.318 104.376 141.318 104.028V97.062C141.318 96.726 141.426 96.468 141.642 96.288C141.858 96.108 142.128 96.018 142.452 96.018C142.764 96.018 143.016 96.108 143.208 96.288C143.412 96.456 143.514 96.702 143.514 97.026V97.458C143.79 96.978 144.156 96.612 144.612 96.36C145.08 96.108 145.614 95.982 146.214 95.982C147.534 95.982 148.416 96.534 148.86 97.638C149.124 97.134 149.514 96.732 150.03 96.432C150.546 96.132 151.128 95.982 151.776 95.982ZM160.849 95.982C162.073 95.982 162.979 96.288 163.567 96.9C164.167 97.5 164.467 98.418 164.467 99.654V104.046C164.467 104.37 164.371 104.628 164.179 104.82C163.987 105 163.723 105.09 163.387 105.09C163.075 105.09 162.817 104.994 162.613 104.802C162.421 104.61 162.325 104.358 162.325 104.046V103.65C162.121 104.118 161.797 104.484 161.353 104.748C160.921 105.012 160.417 105.144 159.841 105.144C159.253 105.144 158.719 105.024 158.239 104.784C157.759 104.544 157.381 104.214 157.105 103.794C156.829 103.374 156.691 102.906 156.691 102.39C156.691 101.742 156.853 101.232 157.177 100.86C157.513 100.488 158.053 100.218 158.797 100.05C159.541 99.882 160.567 99.798 161.875 99.798H162.325V99.384C162.325 98.796 162.199 98.37 161.947 98.106C161.695 97.83 161.287 97.692 160.723 97.692C160.375 97.692 160.021 97.746 159.661 97.854C159.301 97.95 158.875 98.094 158.383 98.286C158.071 98.442 157.843 98.52 157.699 98.52C157.483 98.52 157.303 98.442 157.159 98.286C157.027 98.13 156.961 97.926 156.961 97.674C156.961 97.47 157.009 97.296 157.105 97.152C157.213 96.996 157.387 96.852 157.627 96.72C158.047 96.492 158.545 96.312 159.121 96.18C159.709 96.048 160.285 95.982 160.849 95.982ZM160.291 103.524C160.891 103.524 161.377 103.326 161.749 102.93C162.133 102.522 162.325 102 162.325 101.364V100.986H162.001C161.197 100.986 160.573 101.022 160.129 101.094C159.685 101.166 159.367 101.292 159.175 101.472C158.983 101.652 158.887 101.898 158.887 102.21C158.887 102.594 159.019 102.912 159.283 103.164C159.559 103.404 159.895 103.524 160.291 103.524ZM174.206 96.018C174.542 96.018 174.812 96.114 175.016 96.306C175.22 96.498 175.322 96.756 175.322 97.08V104.19C175.322 105.57 174.938 106.614 174.17 107.322C173.402 108.03 172.268 108.384 170.768 108.384C169.46 108.384 168.368 108.138 167.492 107.646C167.048 107.382 166.826 107.064 166.826 106.692C166.826 106.428 166.886 106.218 167.006 106.062C167.138 105.906 167.306 105.828 167.51 105.828C167.618 105.828 167.75 105.852 167.906 105.9C168.062 105.96 168.224 106.026 168.392 106.098C168.824 106.278 169.208 106.416 169.544 106.512C169.892 106.608 170.288 106.656 170.732 106.656C172.304 106.656 173.09 105.888 173.09 104.352V103.2C172.826 103.692 172.442 104.076 171.938 104.352C171.434 104.616 170.858 104.748 170.21 104.748C169.442 104.748 168.758 104.568 168.158 104.208C167.57 103.836 167.108 103.32 166.772 102.66C166.436 102 166.268 101.238 166.268 100.374C166.268 99.51 166.43 98.748 166.754 98.088C167.09 97.416 167.558 96.9 168.158 96.54C168.758 96.168 169.442 95.982 170.21 95.982C170.858 95.982 171.434 96.12 171.938 96.396C172.442 96.66 172.826 97.038 173.09 97.53V97.062C173.09 96.75 173.192 96.498 173.396 96.306C173.6 96.114 173.87 96.018 174.206 96.018ZM170.804 103.002C171.524 103.002 172.082 102.768 172.478 102.3C172.886 101.832 173.09 101.19 173.09 100.374C173.09 99.546 172.886 98.898 172.478 98.43C172.082 97.962 171.524 97.728 170.804 97.728C170.096 97.728 169.538 97.962 169.13 98.43C168.722 98.898 168.518 99.546 168.518 100.374C168.518 101.19 168.722 101.832 169.13 102.3C169.538 102.768 170.096 103.002 170.804 103.002ZM184.618 102.588C184.822 102.588 184.984 102.666 185.104 102.822C185.236 102.978 185.302 103.188 185.302 103.452C185.302 103.824 185.08 104.136 184.636 104.388C184.228 104.616 183.766 104.802 183.25 104.946C182.734 105.078 182.242 105.144 181.774 105.144C180.358 105.144 179.236 104.736 178.408 103.92C177.58 103.104 177.166 101.988 177.166 100.572C177.166 99.672 177.346 98.874 177.706 98.178C178.066 97.482 178.57 96.942 179.218 96.558C179.878 96.174 180.622 95.982 181.45 95.982C182.242 95.982 182.932 96.156 183.52 96.504C184.108 96.852 184.564 97.344 184.888 97.98C185.212 98.616 185.374 99.366 185.374 100.23C185.374 100.746 185.146 101.004 184.69 101.004H179.38C179.452 101.832 179.686 102.444 180.082 102.84C180.478 103.224 181.054 103.416 181.81 103.416C182.194 103.416 182.53 103.368 182.818 103.272C183.118 103.176 183.454 103.044 183.826 102.876C184.186 102.684 184.45 102.588 184.618 102.588ZM181.504 97.566C180.892 97.566 180.4 97.758 180.028 98.142C179.668 98.526 179.452 99.078 179.38 99.798H183.448C183.424 99.066 183.244 98.514 182.908 98.142C182.572 97.758 182.104 97.566 181.504 97.566ZM190.401 105.144C189.093 105.144 188.037 104.886 187.233 104.37C186.849 104.142 186.657 103.818 186.657 103.398C186.657 103.158 186.723 102.966 186.855 102.822C186.987 102.666 187.149 102.588 187.341 102.588C187.545 102.588 187.827 102.684 188.187 102.876C188.571 103.056 188.919 103.194 189.231 103.29C189.555 103.386 189.963 103.434 190.455 103.434C190.959 103.434 191.349 103.35 191.625 103.182C191.913 103.014 192.057 102.78 192.057 102.48C192.057 102.276 191.997 102.114 191.877 101.994C191.769 101.874 191.565 101.766 191.265 101.67C190.977 101.562 190.533 101.442 189.933 101.31C188.865 101.094 188.097 100.788 187.629 100.392C187.173 99.996 186.945 99.45 186.945 98.754C186.945 98.226 187.101 97.752 187.413 97.332C187.725 96.9 188.151 96.57 188.691 96.342C189.243 96.102 189.867 95.982 190.563 95.982C191.067 95.982 191.553 96.048 192.021 96.18C192.489 96.3 192.909 96.48 193.281 96.72C193.665 96.96 193.857 97.278 193.857 97.674C193.857 97.914 193.791 98.118 193.659 98.286C193.527 98.442 193.365 98.52 193.173 98.52C193.041 98.52 192.909 98.496 192.777 98.448C192.657 98.388 192.501 98.304 192.309 98.196C191.961 98.016 191.661 97.884 191.409 97.8C191.157 97.704 190.845 97.656 190.473 97.656C190.029 97.656 189.675 97.746 189.411 97.926C189.159 98.106 189.033 98.352 189.033 98.664C189.033 98.964 189.165 99.192 189.429 99.348C189.693 99.504 190.203 99.66 190.959 99.816C191.763 99.984 192.393 100.176 192.849 100.392C193.305 100.608 193.629 100.878 193.821 101.202C194.025 101.526 194.127 101.94 194.127 102.444C194.127 103.26 193.785 103.914 193.101 104.406C192.429 104.898 191.529 105.144 190.401 105.144Z" fill="#B8BECD"/>
<path d="M157 65.88C157.811 65.88 158.472 66.1573 158.984 66.712C159.539 67.224 159.816 67.8853 159.816 68.696C159.816 69.5067 159.539 70.1893 158.984 70.744C158.472 71.256 157.811 71.512 157 71.512H147.016V81.432C147.016 82.2427 146.739 82.9253 146.184 83.48C145.672 84.0347 145.011 84.312 144.2 84.312C143.389 84.312 142.707 84.0347 142.152 83.48C141.64 82.9253 141.384 82.2427 141.384 81.432V71.512H131.4C130.589 71.512 129.907 71.256 129.352 70.744C128.84 70.1893 128.584 69.5067 128.584 68.696C128.584 67.8853 128.84 67.224 129.352 66.712C129.907 66.1573 130.589 65.88 131.4 65.88H141.384V55.896C141.384 55.0853 141.64 54.424 142.152 53.912C142.707 53.3573 143.389 53.08 144.2 53.08C145.011 53.08 145.672 53.3573 146.184 53.912C146.739 54.424 147.016 55.0853 147.016 55.896V65.88H157Z" fill="#B8BECD"/>
</svg>
