<svg width="25" height="24" viewBox="0 0 25 24" fill="none" xmlns="http://www.w3.org/2000/svg">
<path d="M21.28 9.344C22.08 9.344 22.752 9.616 23.296 10.16C23.84 10.704 24.112 11.376 24.112 12.176C24.112 12.976 23.84 13.664 23.296 14.24C22.752 14.784 22.08 15.056 21.28 15.056H15.232V21.056C15.232 21.856 14.96 22.528 14.416 23.072C13.904 23.616 13.232 23.888 12.4 23.888C11.6 23.888 10.928 23.616 10.384 23.072C9.84 22.528 9.568 21.856 9.568 21.056V15.056H3.52C2.72 15.056 2.048 14.784 1.504 14.24C0.96 13.664 0.688 12.976 0.688 12.176C0.688 11.376 0.96 10.704 1.504 10.16C2.048 9.616 2.72 9.344 3.52 9.344H9.568V3.296C9.568 2.496 9.84 1.824 10.384 1.28C10.928 0.735999 11.6 0.464 12.4 0.464C13.2 0.464 13.872 0.735999 14.416 1.28C14.96 1.824 15.232 2.496 15.232 3.296V9.344H21.28Z" fill="black"/>
</svg>
