<svg width="10" height="14" viewBox="0 0 10 14" fill="none" xmlns="http://www.w3.org/2000/svg">
<path opacity="0.7" d="M9.66019 7.74375C9.85437 7.56875 10 7.30625 10 7C10 6.7375 9.85437 6.475 9.66019 6.25625L3.05825 0.30625C2.81553 0.13125 2.52427 0 2.23301 0C1.8932 0 1.60194 0.13125 1.40777 0.30625L0.339806 1.3125C0.0970874 1.53125 0 1.79375 0 2.05625C0 2.3625 0.0970874 2.625 0.339806 2.8L5 7L0.339806 11.2C0.0970874 11.4187 0 11.6812 0 11.9438C0 12.25 0.0970874 12.5125 0.339806 12.6875L1.40777 13.6938C1.60194 13.9125 1.8932 14 2.23301 14C2.52427 14 2.81553 13.9125 3.05825 13.6938L9.66019 7.74375Z" fill="#999999"/>
</svg>
