<svg width="50" height="50" viewBox="0 0 50 50" fill="none" xmlns="http://www.w3.org/2000/svg">
<circle cx="25" cy="25" r="25" fill="#FFCD61"/>
<path d="M29.1038 16.7103C29.3158 16.4851 29.5674 16.3065 29.8443 16.1846C30.1212 16.0627 30.418 16 30.7177 16C31.0174 16 31.3142 16.0627 31.5911 16.1846C31.868 16.3065 32.1196 16.4851 32.3315 16.7103C32.5435 16.9354 32.7116 17.2028 32.8263 17.497C32.941 17.7912 33 18.1065 33 18.425C33 18.7434 32.941 19.0588 32.8263 19.353C32.7116 19.6472 32.5435 19.9145 32.3315 20.1397L21.4381 31.714L17 33L18.2104 28.2845L29.1038 16.7103Z" stroke="#393939" stroke-width="2" stroke-linecap="round" stroke-linejoin="round"/>
</svg>
