<svg width="60" height="60" viewBox="0 0 57 51" fill="none" xmlns="http://www.w3.org/2000/svg">
<!-- <g filter="url(#filter0_d)"> -->
<path d="M37.875 28.1719C37.875 27.9844 37.7812 27.8438 37.6875 27.7031L28.875 20.4844C28.7344 20.3906 28.5938 20.3438 28.5 20.3438C28.3594 20.3438 28.2188 20.3906 28.125 20.4844L19.3125 27.7031C19.1719 27.8438 19.125 27.9844 19.125 28.1719V34.875C19.125 35.2031 19.2188 35.4844 19.4531 35.6719C19.6406 35.9062 19.9219 36 20.25 36H25.6875C25.8281 36 25.9688 35.9531 26.0625 35.8594C26.1562 35.7656 26.25 35.625 26.25 35.4375V30.1875C26.25 30.0469 26.2969 29.9062 26.3906 29.8125C26.4844 29.7188 26.625 29.625 26.8125 29.625H30.1875C30.3281 29.625 30.4688 29.7188 30.5625 29.8125C30.6562 29.9062 30.75 30.0469 30.75 30.1875V35.4375C30.75 35.625 30.7969 35.7656 30.8906 35.8594C30.9844 35.9531 31.125 36 31.3125 36H36.75C37.0312 36 37.3125 35.9062 37.5469 35.6719C37.7344 35.4844 37.875 35.2031 37.875 34.875V28.1719ZM41.8125 25.3125C41.9062 25.4062 41.9531 25.5469 41.9531 25.6875C41.9531 25.875 41.9531 26.0156 41.8594 26.1094L40.6875 27.5625C40.5938 27.7031 40.4531 27.75 40.3125 27.75C40.125 27.75 39.9844 27.7031 39.8906 27.6094L28.875 18.5625C28.7344 18.4688 28.5938 18.4219 28.5 18.4219C28.3594 18.4219 28.2188 18.4688 28.125 18.5625L17.1094 27.6094C16.9688 27.7031 16.8281 27.75 16.6875 27.75C16.5 27.75 16.4062 27.7031 16.3125 27.5625L15.1406 26.1094C15.0469 26.0156 15 25.875 15 25.6875C15 25.5469 15.0938 25.4062 15.1875 25.3125L27.0938 15.5156C27.4688 15.1875 27.9375 15 28.5 15C29.0156 15 29.4844 15.1875 29.9531 15.5156L34.125 18.9844V15.5625C34.125 15.4219 34.1719 15.2812 34.2656 15.1875C34.3594 15.0938 34.5 15 34.6875 15H37.3125C37.4531 15 37.5938 15.0938 37.6875 15.1875C37.7812 15.2812 37.875 15.4219 37.875 15.5625V22.0781L41.8125 25.3125Z" fill="#DFDEDE"/>
<!-- </g>
<defs>
<filter id="filter0_d" x="0" y="0" width="56.9531" height="51" filterUnits="userSpaceOnUse" color-interpolation-filters="sRGB">
<feFlood flood-opacity="0" result="BackgroundImageFix"/>
<feColorMatrix in="SourceAlpha" type="matrix" values="0 0 0 0 0 0 0 0 0 0 0 0 0 0 0 0 0 0 127 0" result="hardAlpha"/>
<feOffset/>
<feGaussianBlur stdDeviation="7.5"/>
<feColorMatrix type="matrix" values="0 0 0 0 1 0 0 0 0 1 0 0 0 0 1 0 0 0 1 0"/>
<feBlend mode="normal" in2="BackgroundImageFix" result="effect1_dropShadow"/>
<feBlend mode="normal" in="SourceGraphic" in2="effect1_dropShadow" result="shape"/>
</filter>
</defs> -->
</svg>
