<svg width="22" height="22" viewBox="0 0 22 22" fill="none" xmlns="http://www.w3.org/2000/svg">
<g clip-path="url(#clip0)">
<path d="M15.9305 0.344482H6.06953C2.71746 0.344482 0 2.99428 0 6.2629V15.8783C0 19.147 2.71746 21.7968 6.06953 21.7968H15.9305C19.2825 21.7968 22 19.147 22 15.8783V6.2629C22 2.99428 19.2825 0.344482 15.9305 0.344482ZM20.0473 15.8783C20.0473 18.0997 18.1923 19.8927 15.9305 19.8927H6.06953C3.79142 19.8927 1.95266 18.0839 1.95266 15.8783V6.2629C1.95266 4.05738 3.80769 2.24853 6.06953 2.24853H15.9305C18.2086 2.24853 20.0473 4.05738 20.0473 6.2629V15.8783Z" fill="#393939"/>
<path d="M10.9993 5.54883C7.87505 5.54883 5.32031 8.02409 5.32031 11.0706C5.32031 14.117 7.85877 16.6082 10.9993 16.6082C14.1236 16.6082 16.6783 14.1329 16.6783 11.0706C16.6783 8.02409 14.1236 5.54883 10.9993 5.54883ZM10.9993 14.7041C8.94901 14.7041 7.27298 13.0857 7.27298 11.0864C7.28925 9.07132 8.94901 7.45288 10.9993 7.45288C13.0496 7.45288 14.7256 9.07132 14.7256 11.0706C14.7256 13.0698 13.0496 14.7041 10.9993 14.7041Z" fill="#393939"/>
<path d="M16.9066 3.93042C16.5323 3.93042 16.158 4.07322 15.8977 4.34296C15.6373 4.59684 15.4746 4.96178 15.4746 5.32672C15.4746 5.69167 15.6211 6.05661 15.8977 6.31048C16.158 6.56435 16.5323 6.72303 16.9066 6.72303C17.2808 6.72303 17.6551 6.58022 17.9154 6.31048C18.1758 6.05661 18.3385 5.69167 18.3385 5.32672C18.3385 4.96178 18.1921 4.59684 17.9154 4.34296C17.6551 4.07322 17.2971 3.93042 16.9066 3.93042Z" fill="#393939"/>
</g>
<defs>
<clipPath id="clip0">
<rect width="22" height="21.4523" fill="white" transform="translate(0 0.344482)"/>
</clipPath>
</defs>
</svg>
