<svg width="23" height="22" viewBox="0 0 23 22" fill="none" xmlns="http://www.w3.org/2000/svg">
<g clip-path="url(#clip0)">
<path d="M5.21545 7.34082H0.275391V21.8217H5.21545V7.34082Z" fill="#393939"/>
<path d="M21.4367 8.66319C20.4028 7.5648 19.0241 7.00439 17.3238 7.00439C16.7035 7.00439 16.129 7.07164 15.6006 7.22856C15.0951 7.38547 14.6585 7.58722 14.2909 7.85621C13.9462 8.1252 13.6475 8.37178 13.4407 8.61836C13.2339 8.84252 13.0501 9.0891 12.8663 9.38051V7.31822H7.94922L7.9722 8.01312C7.9722 8.48386 7.99517 9.9185 7.99517 12.3394C7.99517 14.7604 7.99517 17.8987 7.9722 21.7991H12.8893V13.7292C12.8893 13.2361 12.9352 12.8326 13.0501 12.5412C13.2569 12.048 13.5786 11.6221 13.9922 11.2859C14.4058 10.9496 14.9342 10.7927 15.5776 10.7927C16.4277 10.7927 17.0711 11.0841 17.4617 11.667C17.8753 12.2498 18.0591 13.0568 18.0591 14.0655V21.7991H22.9762V13.5051C22.9992 11.3755 22.4937 9.76158 21.4367 8.66319Z" fill="#393939"/>
<path d="M2.78022 0.369385C1.95305 0.369385 1.28671 0.615963 0.781219 1.0867C0.252747 1.55744 0 2.14026 0 2.85758C0 3.5749 0.252747 4.15772 0.758242 4.65088C1.26374 5.12161 1.90709 5.36819 2.73427 5.36819H2.75724C3.60739 5.36819 4.27373 5.12161 4.77922 4.65088C5.28472 4.18014 5.53746 3.5749 5.53746 2.85758C5.53746 2.14026 5.26174 1.53503 4.77922 1.06429C4.27373 0.615963 3.60739 0.369385 2.78022 0.369385Z" fill="#393939"/>
</g>
<defs>
<clipPath id="clip0">
<rect width="23" height="21.4523" fill="white" transform="translate(0 0.369385)"/>
</clipPath>
</defs>
</svg>
