<svg width="25" height="20" viewBox="0 0 25 20" fill="none" xmlns="http://www.w3.org/2000/svg">
<g clip-path="url(#clip0)">
<path d="M24.999 2.63457C24.0252 3.0321 23.0272 3.28932 22.0535 3.40624C23.1733 2.77488 23.9035 1.86291 24.3174 0.693721C23.295 1.25493 22.1995 1.65246 21.0554 1.86291C20.033 0.834023 18.7916 0.31958 17.3066 0.31958C15.8948 0.31958 14.6776 0.81064 13.6796 1.76937C12.6815 2.72811 12.1703 3.8973 12.1703 5.25356C12.1703 5.6277 12.219 6.00184 12.292 6.37598C10.1986 6.28244 8.2268 5.768 6.4011 4.85603C4.57539 3.94407 3.01745 2.72811 1.72729 1.23155C1.26478 2.00321 1.02135 2.82164 1.02135 3.71023C1.02135 4.55204 1.21609 5.34709 1.62992 6.04861C2.04374 6.7735 2.60363 7.3581 3.28522 7.80239C2.45757 7.77901 1.6786 7.56855 0.972662 7.17103V7.24118C0.972662 8.43375 1.36215 9.46264 2.14111 10.3746C2.92008 11.2632 3.89379 11.8478 5.08659 12.0816C4.64842 12.1985 4.1859 12.2453 3.74774 12.2453C3.45562 12.2453 3.13917 12.2219 2.77403 12.1752C3.09048 13.1573 3.69905 13.9757 4.57539 14.6071C5.45173 15.2384 6.44978 15.5658 7.56955 15.5892C5.7195 16.9922 3.57734 17.6937 1.21609 17.6937C0.753577 17.6937 0.339751 17.6703 -0.0253906 17.6236C2.3602 19.0968 4.98922 19.8217 7.83732 19.8217C9.66302 19.8217 11.367 19.541 12.9736 19.0032C14.5803 18.442 15.9435 17.7171 17.0632 16.7818C18.183 15.8464 19.181 14.7708 19.9843 13.5782C20.812 12.3622 21.4206 11.0995 21.8101 9.79001C22.1995 8.48052 22.4186 7.14764 22.4186 5.83815C22.4186 5.55755 22.4186 5.34709 22.3943 5.20679C23.441 4.48189 24.293 3.64008 24.999 2.63457Z" fill="#393939"/>
</g>
<defs>
<clipPath id="clip0">
<rect width="25" height="19.5021" fill="white" transform="translate(0 0.31958)"/>
</clipPath>
</defs>
</svg>
