<svg width="22" height="24" viewBox="0 0 22 24" fill="none" xmlns="http://www.w3.org/2000/svg">
<path d="M11 12C9.875 12 8.89062 11.7656 7.95312 11.2031C7.01562 10.6875 6.3125 9.98438 5.79688 9.04688C5.23438 8.10938 5 7.125 5 6C5 4.92188 5.23438 3.9375 5.79688 3C6.3125 2.0625 7.01562 1.35938 7.95312 0.796875C8.89062 0.28125 9.875 0 11 0C12.0781 0 13.0625 0.28125 14 0.796875C14.9375 1.35938 15.6406 2.0625 16.2031 3C16.7188 3.9375 17 4.92188 17 6C17 7.125 16.7188 8.10938 16.2031 9.04688C15.6406 9.98438 14.9375 10.6875 14 11.2031C13.0625 11.7656 12.0781 12 11 12ZM15.2188 13.5C16.3438 13.5 17.375 13.7812 18.3594 14.3438C19.2969 14.9062 20.0938 15.7031 20.6562 16.6406C21.2188 17.625 21.5 18.6562 21.5 19.7812V21.75C21.5 22.4062 21.2656 22.9219 20.8438 23.3438C20.375 23.8125 19.8594 24 19.25 24H2.75C2.09375 24 1.57812 23.8125 1.15625 23.3438C0.6875 22.9219 0.5 22.4062 0.5 21.75V19.7812C0.5 18.6562 0.78125 17.625 1.34375 16.6406C1.90625 15.7031 2.65625 14.9062 3.64062 14.3438C4.57812 13.7812 5.65625 13.5 6.78125 13.5H7.57812C8.65625 14.0156 9.78125 14.25 11 14.25C12.1719 14.25 13.2969 14.0156 14.4219 13.5H15.2188Z" fill="#DFDEDE"/>
</svg>
