<svg width="29" height="20" viewBox="0 0 29 20" fill="none" xmlns="http://www.w3.org/2000/svg">
<g clip-path="url(#clip0)">
<path d="M27.9856 7.77901C27.9856 7.24118 27.9376 6.53967 27.8417 5.69785C27.7698 4.85603 27.6499 4.10775 27.506 3.45301C27.3381 2.70473 26.9784 2.09675 26.4269 1.5823C25.8753 1.06786 25.2278 0.787256 24.4844 0.693721C22.1823 0.436499 18.6811 0.31958 14.0048 0.31958C9.32854 0.31958 5.82734 0.436499 3.52518 0.693721C2.78177 0.787256 2.13429 1.06786 1.58273 1.5823C1.03118 2.09675 0.671463 2.70473 0.503597 3.45301C0.335731 4.10775 0.239808 4.85603 0.143885 5.69785C0.0719424 6.53967 0.0239808 7.24118 0 7.77901C0 8.34022 0 9.0885 0 10.0706C0 11.0527 0 11.801 0.0239808 12.3622C0.0239808 12.9001 0.0719424 13.6016 0.167866 14.4434C0.215827 15.2852 0.335731 16.0335 0.479616 16.6882C0.647482 17.4365 1.00719 18.0445 1.55875 18.5589C2.11031 19.0734 2.75779 19.354 3.5012 19.4475C5.80336 19.7047 9.30456 19.8217 13.9808 19.8217C18.6571 19.8217 22.1583 19.7047 24.4604 19.4475C25.2038 19.3774 25.8513 19.0734 26.4029 18.5589C26.9544 18.0445 27.3141 17.4365 27.482 16.6882C27.6499 16.0335 27.7458 15.2852 27.8417 14.4434C27.9137 13.6016 27.9616 12.9001 27.9856 12.3622C27.9856 11.8244 28.0096 11.0527 28.0096 10.0706C28.0096 9.0885 28.0096 8.34022 27.9856 7.77901ZM19.5444 10.889L11.5348 15.7763C11.3909 15.8698 11.223 15.9399 11.0072 15.9399C10.8393 15.9399 10.6954 15.8932 10.5276 15.823C10.1918 15.636 10 15.3554 10 14.9578V5.20679C10 4.80927 10.1679 4.52866 10.5276 4.34159C10.8873 4.15452 11.223 4.1779 11.5348 4.36497L15.5396 6.80858L19.5444 9.25218C19.8561 9.41587 20.024 9.69648 20.024 10.0706C20 10.4448 19.8561 10.7254 19.5444 10.889Z" fill="#393939"/>
</g>
<defs>
<clipPath id="clip0">
<rect width="28.0096" height="19.5021" fill="white" transform="translate(0 0.31958)"/>
</clipPath>
</defs>
</svg>
